<svg width="74" height="43" viewBox="0 0 74 43" fill="none" xmlns="http://www.w3.org/2000/svg">
<g clip-path="url(#clip0_1640_390)">
<path d="M0.620465 39.7356L0 40.1492L0.620465 40.6663H10.0308L10.4186 40.1492L10.0308 39.7356H0.620465Z" fill="black"/>
<path d="M14.3221 35.3923C13.0604 35.3923 10.1253 37.2365 8.81543 38.1586C9.09119 35.4699 8.81543 29.5393 8.81543 26.8092C8.81543 24.0792 17.3985 23.0089 21.2764 22.8796H66.467V38.5981H31.178L28.722 35.7801C24.4477 35.6509 15.5837 35.3923 14.3221 35.3923Z" fill="#2B2A2A"/>
<path d="M6.97983 33.6087V26.1631H9.09975V39.7358H0.568359V34.9272C0.568359 33.9137 1.6197 33.6259 2.14537 33.6087H6.97983Z" fill="#FF9500"/>
<path d="M40.9247 10.703V3.30915H47.026C50.3972 3.30915 52.6016 5.27395 53.2823 6.25635L64.8902 21.2509C65.6658 22.4315 67.2169 24.0068 67.2169 20.8631C67.2169 17.7194 64.6661 13.3831 63.3907 11.6079V0H73.9128V26.9644H66.6223V35.5475H48.9132C47.6292 35.625 46.0849 35.7336 43.5617 35.5475C41.0385 35.3613 34.3237 31.1525 33.0914 29.653V32.9105H30.532V28.1794L11.7112 25.3098L1.80961 28.9292L1.37012 28.1794C1.37012 18.8932 15.4254 17.2265 21.3543 17.554H36.5556C36.5556 14.1828 39.4684 14.0466 40.9247 14.4H43.5617V10.703H40.9247Z" fill="#FF9500"/>
<path d="M39.9677 26.6023C40.5881 29.6219 36.6413 30.7732 34.5645 30.9714L37.0205 32.6777C39.6402 31.747 44.89 29.627 45.4484 28.2827C46.1465 26.6023 41.7774 21.8454 43.1475 20.0357C44.2437 18.5879 55.8757 17.2867 61.4771 16.8041L57.8319 12.1248C57.5389 12.323 55.9912 12.8745 53.2818 13.1847C49.8951 13.5725 37.2014 18.3553 36.2966 20.0357C35.3917 21.7161 39.1921 22.8278 39.9677 26.6023Z" fill="#727272"/>
<path d="M73.9385 5.06712C73.9385 7.81714 66.6825 10.9788 63.3906 11.6337C63.7612 12.056 64.9159 13.5209 65.8725 16.0287C68.4164 16.0287 72.3357 14.5464 73.9385 13.7536C74.0764 10.1601 73.9385 4.39495 73.9385 5.06712Z" fill="#727272"/>
<path d="M40.9512 4.82736V3.61938H47.8843C49.5795 3.61938 52.3765 5.31568 54.3429 8.01434C52.3901 5.79373 49.2235 4.96443 47.8843 4.82736H40.9512Z" fill="#F1F3F7" fill-opacity="0.2"/>
<path d="M41.0029 10.5666V9.35864H47.2133C48.7318 9.35864 51.2372 11.0549 52.9986 13.7536C51.2493 11.533 48.4129 10.7037 47.2133 10.5666H41.0029Z" fill="black" fill-opacity="0.1"/>
<path d="M33.0402 18.6656C51.2128 19.4092 58.6745 24.1805 60.1338 26.4731L46.7572 26.4731C44.2667 25.2091 36.5748 24.0875 33.0402 23.6847L33.0402 18.6656Z" fill="url(#paint0_linear_1640_390)"/>
<path d="M40.9501 3.30915C49.6624 2.97308 51.2912 2.79211 55.7637 9.4104L53.3594 7.36804C50.2053 5.17056 42.7714 6.07395 40.9501 5.86857L40.9501 3.30915Z" fill="url(#paint1_linear_1640_390)"/>
<path d="M27.4821 18.0452C18.7698 17.7091 4.42152 17.8642 2.14648 26.7058C2.14648 26.7058 5.94683 23.142 10.5745 21.6128C15.2021 20.0837 19.8556 18.8207 22.9062 19.3895L27.4821 18.0452Z" fill="url(#paint2_linear_1640_390)"/>
<path d="M33.2013 20.5964L33.3408 19.3894L43.9441 20.6153C46.5366 20.915 50.6183 23.1045 53.3138 26.1488C50.5838 23.5846 45.8368 22.1961 43.8046 21.8223L33.2013 20.5964Z" fill="#F1F3F7" fill-opacity="0.3"/>
<path d="M43.2833 14.4954L43.4229 13.2883L51.0334 14.1682C52.8942 14.3833 55.7685 16.4333 57.6152 19.3794C55.7281 16.9127 52.348 15.6822 50.8939 15.3752L43.2833 14.4954Z" fill="#F1F3F7" fill-opacity="0.3"/>
<path d="M33.1434 29.7307L33.04 24.405C38.1072 30.0513 47.0263 31.3594 50.8525 31.3077L53.929 35.4441C53.929 35.4441 44.9581 35.9612 42.8382 35.4441C39.7469 34.6901 34.8497 31.4887 33.1434 29.7307Z" fill="url(#paint3_linear_1640_390)"/>
<circle cx="62.46" cy="30.4547" r="11.4786" fill="#11161C"/>
<path d="M31.6696 19.0536H28.6966L26.5508 14.3225H29.1619L31.6696 19.0536Z" fill="#696868"/>
<path d="M25.3872 14.4257C25.1727 13.8535 25.1139 13.7631 25.2062 13.1589C25.2985 12.5548 28.458 11.0913 30.351 11.8922C30.9879 12.1617 31.4936 12.2673 31.8246 12.8746C32.1556 13.4819 32.5995 14.8652 31.7211 14.8652C30.5061 14.8652 25.6018 14.998 25.3872 14.4257Z" fill="#FF9500"/>
<rect x="31.8506" y="36.8142" width="20.889" height="0.568759" fill="#565656"/>
<path d="M33.1427 32.9882V19.4155H22.1553L31.4881 32.9882H33.1427Z" fill="url(#paint4_linear_1640_390)"/>
<path d="M35.5666 22.7993V30.3201H33.5248V22.7993H35.5666ZM43.5556 25.6196H41.4844C41.4697 25.4482 41.4305 25.2927 41.3669 25.1532C41.3057 25.0137 41.22 24.8937 41.1098 24.7933C41.0021 24.6905 40.8711 24.6122 40.7169 24.5583C40.5627 24.502 40.3876 24.4738 40.1918 24.4738C39.849 24.4738 39.5589 24.5571 39.3214 24.7235C39.0864 24.89 38.9077 25.1287 38.7853 25.4396C38.6653 25.7506 38.6053 26.1239 38.6053 26.5597C38.6053 27.0199 38.6666 27.4055 38.789 27.7164C38.9138 28.0249 39.0938 28.2575 39.3288 28.4142C39.5638 28.5684 39.8466 28.6455 40.1771 28.6455C40.3656 28.6455 40.5345 28.6223 40.6838 28.5757C40.8332 28.5268 40.9629 28.457 41.0731 28.3664C41.1833 28.2758 41.2726 28.1669 41.3412 28.0396C41.4122 27.9098 41.4599 27.7642 41.4844 27.6026L43.5556 27.6173C43.5311 27.9355 43.4417 28.2599 43.2875 28.5904C43.1332 28.9185 42.9141 29.2221 42.6301 29.5012C42.3486 29.7778 41.9997 30.0006 41.5835 30.1695C41.1674 30.3384 40.6838 30.4229 40.133 30.4229C39.4426 30.4229 38.8232 30.2748 38.2748 29.9785C37.7289 29.6823 37.2968 29.2465 36.9785 28.6712C36.6627 28.0959 36.5048 27.3921 36.5048 26.5597C36.5048 25.7224 36.6664 25.0173 36.9896 24.4445C37.3127 23.8691 37.7485 23.4346 38.2969 23.1408C38.8453 22.8446 39.4573 22.6965 40.133 22.6965C40.608 22.6965 41.045 22.7613 41.444 22.8911C41.8431 23.0208 42.1931 23.2106 42.4943 23.4603C42.7954 23.7076 43.0378 24.0124 43.2214 24.3747C43.405 24.737 43.5164 25.152 43.5556 25.6196ZM44.4819 30.3201V22.7993H47.7428C48.3157 22.7993 48.7968 22.8764 49.186 23.0306C49.5777 23.1849 49.8728 23.4028 50.0711 23.6843C50.2718 23.9658 50.3722 24.2976 50.3722 24.6795C50.3722 24.9561 50.311 25.2083 50.1886 25.436C50.0686 25.6636 49.8997 25.8546 49.6818 26.0088C49.4639 26.1606 49.2093 26.2659 48.918 26.3247V26.3981C49.2411 26.4103 49.5349 26.4924 49.7993 26.6441C50.0637 26.7935 50.2743 27.0003 50.4309 27.2647C50.5876 27.5267 50.666 27.8352 50.666 28.1902C50.666 28.6015 50.5582 28.9675 50.3428 29.2882C50.1298 29.6089 49.8262 29.861 49.4321 30.0446C49.0379 30.2283 48.5679 30.3201 48.0219 30.3201H44.4819ZM46.5237 28.6896H47.4784C47.8212 28.6896 48.0782 28.6259 48.2496 28.4986C48.421 28.3689 48.5067 28.1779 48.5067 27.9258C48.5067 27.7495 48.4663 27.6001 48.3855 27.4777C48.3047 27.3553 48.1896 27.2623 48.0403 27.1986C47.8934 27.135 47.7159 27.1032 47.5078 27.1032H46.5237V28.6896ZM46.5237 25.8399H47.3609C47.5396 25.8399 47.6976 25.8118 47.8346 25.7555C47.9717 25.6991 48.0782 25.6184 48.1541 25.5131C48.2325 25.4054 48.2716 25.2744 48.2716 25.1202C48.2716 24.8876 48.1884 24.7101 48.0219 24.5877C47.8555 24.4628 47.6449 24.4004 47.3903 24.4004H46.5237V25.8399Z" fill="white"/>
<rect x="1.80957" y="36.6333" width="7.29046" height="3.10232" fill="#DC8000"/>
<circle cx="20.5782" cy="30.4547" r="11.4786" fill="#11161C"/>
<path d="M20.4756 20.5789C26.0155 20.5789 30.5068 25.0702 30.5068 30.6101C30.5066 36.1498 26.0153 40.6404 20.4756 40.6404C14.9358 40.6404 10.4445 36.1498 10.4443 30.6101C10.4443 25.0702 14.9357 20.5789 20.4756 20.5789ZM20.4746 21.5613C15.4776 21.5615 11.427 25.6121 11.4268 30.6091C11.4268 35.6063 15.4775 39.6578 20.4746 39.658C25.4719 39.658 29.5234 35.6064 29.5234 30.6091C29.5232 25.612 25.4718 21.5613 20.4746 21.5613Z" fill="#D9D9D9"/>
<path d="M20.4756 22.5952C24.9018 22.5952 28.4902 26.1837 28.4902 30.6099C28.4901 35.0359 24.9017 38.6235 20.4756 38.6235C16.0495 38.6235 12.4611 35.0359 12.4609 30.6099C12.4609 26.1837 16.0494 22.5952 20.4756 22.5952ZM20.4756 23.3804C16.4829 23.3804 13.2461 26.6172 13.2461 30.6099C13.2462 34.6025 16.483 37.8394 20.4756 37.8394C24.4681 37.8392 27.705 34.6024 27.7051 30.6099C27.7051 26.6173 24.4681 23.3805 20.4756 23.3804Z" fill="#535353"/>
<path d="M20.4756 23.8362C24.2162 23.8364 27.249 26.8689 27.249 30.6096C27.249 34.3503 24.2162 37.3828 20.4756 37.3831C16.7348 37.3831 13.7022 34.3504 13.7021 30.6096C13.7021 26.8688 16.7347 23.8362 20.4756 23.8362ZM20.4756 24.1467C16.9061 24.1468 14.0127 27.0401 14.0127 30.6096C14.0127 34.1791 16.9061 37.0725 20.4756 37.0725C24.0451 37.0725 26.9385 34.1791 26.9385 30.6096C26.9385 27.0401 24.0451 24.1467 20.4756 24.1467Z" fill="#C9C8C8"/>
<path d="M20.4756 19.0276C26.8721 19.0277 32.0576 24.2131 32.0576 30.6096C32.0576 37.0061 26.8721 42.1916 20.4756 42.1917C14.079 42.1917 8.89355 37.0062 8.89355 30.6096C8.89356 24.2131 14.079 19.0276 20.4756 19.0276ZM20.4756 19.7512C14.4788 19.7512 9.61719 24.6128 9.61719 30.6096C9.61725 36.6064 14.4788 41.468 20.4756 41.468C26.4723 41.468 31.3339 36.6063 31.334 30.6096C31.334 24.6128 26.4724 19.7512 20.4756 19.7512Z" fill="url(#paint5_radial_1640_390)"/>
<rect x="20.3076" y="25.2322" width="0.361938" height="10.7547" fill="#D9D9D9"/>
<rect x="23.207" y="25.9504" width="0.361938" height="10.7547" transform="rotate(31.9343 23.207 25.9504)" fill="#D9D9D9"/>
<rect x="25.5059" y="28.5532" width="0.361938" height="10.7547" transform="rotate(69.4585 25.5059 28.5532)" fill="#D9D9D9"/>
<rect x="25.752" y="31.8806" width="0.361938" height="10.7547" transform="rotate(105.774 25.752 31.8806)" fill="#D9D9D9"/>
<rect x="23.8916" y="34.8127" width="0.361938" height="10.7547" transform="rotate(143.298 23.8916 34.8127)" fill="#D9D9D9"/>
<circle cx="20.4752" cy="30.868" r="2.32674" fill="#FF9500"/>
<circle cx="20.4754" cy="30.8682" r="1.18922" fill="#D9D9D9"/>
<path d="M28.2938 26.6207L23.6985 22.496L24.5261 20.962L26.9889 22.3529L29.5468 25.5814L28.2938 26.6207Z" fill="#11161C"/>
<path d="M26.2976 22.459L25.3082 23.592L25.0007 23.3234L25.99 22.1904L26.2976 22.459ZM27.1301 23.9349L26.8181 23.6624C26.8384 23.6346 26.853 23.6061 26.8617 23.5767C26.8709 23.5476 26.8738 23.5183 26.8704 23.4887C26.8677 23.459 26.8582 23.43 26.8421 23.4016C26.8263 23.3728 26.8036 23.3455 26.7741 23.3197C26.7225 23.2747 26.6678 23.249 26.6101 23.2429C26.5528 23.237 26.4945 23.2495 26.4352 23.2802C26.3762 23.3113 26.318 23.3596 26.2607 23.4253C26.2002 23.4946 26.1587 23.5607 26.1362 23.6237C26.1144 23.6866 26.1109 23.7453 26.1257 23.7998C26.1408 23.854 26.1733 23.9028 26.2231 23.9463C26.2515 23.9711 26.28 23.9898 26.3086 24.0024C26.3375 24.0147 26.3663 24.0212 26.3948 24.0221C26.4233 24.0229 26.4511 24.0183 26.4782 24.0081C26.5059 23.9979 26.5323 23.9822 26.5572 23.9611L26.8673 24.2358C26.8217 24.2805 26.7656 24.3176 26.6989 24.3471C26.6325 24.3763 26.5596 24.3932 26.4801 24.3979C26.4013 24.4025 26.3194 24.3902 26.2345 24.3609C26.1496 24.3316 26.0656 24.2807 25.9826 24.2082C25.8786 24.1174 25.8048 24.0136 25.7612 23.8968C25.7179 23.7804 25.7101 23.6579 25.7379 23.5294C25.766 23.4011 25.8348 23.2743 25.9443 23.1489C26.0544 23.0228 26.1715 22.9378 26.2956 22.8941C26.4199 22.8499 26.5427 22.8418 26.664 22.8697C26.7856 22.8972 26.8973 22.9554 26.9991 23.0443C27.0706 23.1067 27.1279 23.174 27.1709 23.2461C27.214 23.3181 27.2418 23.3927 27.2543 23.47C27.2671 23.5468 27.2635 23.6246 27.2435 23.7034C27.2235 23.7821 27.1857 23.8593 27.1301 23.9349ZM26.6513 24.7648L27.6407 23.6319L28.1319 24.0609C28.2182 24.1362 28.2805 24.2111 28.3189 24.2856C28.3576 24.3603 28.3734 24.432 28.3662 24.5005C28.3594 24.5693 28.3309 24.6325 28.2807 24.69C28.2443 24.7317 28.2019 24.7616 28.1535 24.7798C28.1055 24.7983 28.0549 24.8049 28.0018 24.7994C27.949 24.7936 27.8968 24.776 27.8452 24.7465L27.8355 24.7576C27.8826 24.8019 27.916 24.8529 27.9359 24.9106C27.9561 24.9679 27.9606 25.0267 27.9494 25.0872C27.9386 25.1473 27.9098 25.204 27.8631 25.2575C27.809 25.3195 27.7446 25.3604 27.6699 25.3804C27.5957 25.4007 27.5168 25.3987 27.4332 25.3746C27.3497 25.3504 27.2668 25.3024 27.1846 25.2305L26.6513 24.7648ZM27.1734 24.7878L27.3172 24.9134C27.3688 24.9585 27.4159 24.9827 27.4585 24.9861C27.5014 24.9891 27.5394 24.9716 27.5726 24.9336C27.5958 24.9071 27.6093 24.8793 27.6133 24.8502C27.6172 24.8211 27.6121 24.792 27.598 24.7627C27.5842 24.7338 27.5617 24.7057 27.5303 24.6783L27.3821 24.5488L27.1734 24.7878ZM27.5482 24.3585L27.6744 24.4687C27.7013 24.4922 27.7288 24.5087 27.7568 24.5183C27.7849 24.5278 27.8116 24.5297 27.8369 24.5238C27.8628 24.5179 27.886 24.5033 27.9063 24.48C27.9368 24.445 27.9477 24.4073 27.9387 24.367C27.93 24.3263 27.9065 24.2892 27.8682 24.2557L27.7376 24.1417L27.5482 24.3585Z" fill="white"/>
<path d="M17.7873 38.9859L13.1338 34.927L11.7119 35.9353L13.3923 38.2103L16.9083 40.3561L17.7873 38.9859Z" fill="#11161C"/>
<path d="M15.0098 39.4044L16.019 38.2891L16.3218 38.5631L15.3126 39.6784L15.0098 39.4044ZM14.2035 37.9141L14.5106 38.192C14.4898 38.2194 14.4748 38.2477 14.4655 38.2769C14.4558 38.3058 14.4524 38.3351 14.4553 38.3648C14.4575 38.3945 14.4664 38.4237 14.482 38.4524C14.4973 38.4814 14.5195 38.5091 14.5486 38.5354C14.5994 38.5814 14.6536 38.608 14.7111 38.6151C14.7683 38.622 14.8269 38.6106 14.8868 38.5809C14.9463 38.5509 15.0053 38.5036 15.0637 38.4389C15.1255 38.3707 15.1682 38.3053 15.1917 38.2428C15.2146 38.1803 15.2191 38.1216 15.2053 38.0668C15.1912 38.0124 15.1596 37.963 15.1106 37.9187C15.0826 37.8934 15.0544 37.8742 15.026 37.861C14.9973 37.8483 14.9687 37.8412 14.9402 37.8398C14.9117 37.8385 14.8839 37.8427 14.8566 37.8523C14.8287 37.8621 14.802 37.8773 14.7767 37.8979L14.4716 37.6178C14.5179 37.5739 14.5747 37.5378 14.6419 37.5095C14.7088 37.4815 14.782 37.4659 14.8616 37.4626C14.9405 37.4594 15.0221 37.4732 15.1065 37.504C15.1909 37.5348 15.2739 37.5871 15.3556 37.661C15.458 37.7537 15.53 37.8588 15.5715 37.9763C15.6127 38.0935 15.6184 38.2161 15.5883 38.3441C15.558 38.4718 15.4869 38.5974 15.3752 38.7208C15.2629 38.845 15.1443 38.9279 15.0195 38.9694C14.8944 39.0114 14.7714 39.0174 14.6507 38.9873C14.5296 38.9577 14.419 38.8975 14.3188 38.8068C14.2483 38.7431 14.1922 38.6749 14.1505 38.6021C14.1087 38.5293 14.0823 38.4542 14.0711 38.3767C14.0596 38.2996 14.0646 38.2219 14.086 38.1435C14.1074 38.0652 14.1465 37.9887 14.2035 37.9141ZM14.6969 37.0927L13.6876 38.208L13.204 37.7704C13.1191 37.6935 13.0581 37.6176 13.0211 37.5424C12.9837 37.467 12.9692 37.3951 12.9775 37.3267C12.9855 37.2581 13.0152 37.1954 13.0664 37.1388C13.1036 37.0977 13.1465 37.0685 13.1952 37.0512C13.2435 37.0335 13.2942 37.0279 13.3472 37.0343C13.3999 37.041 13.4518 37.0595 13.5029 37.0899L13.5127 37.079C13.4664 37.0338 13.4339 36.9823 13.415 36.9243C13.3959 36.8666 13.3924 36.8077 13.4046 36.7475C13.4166 36.6876 13.4463 36.6313 13.494 36.5787C13.5492 36.5177 13.6142 36.4779 13.6892 36.4592C13.7639 36.4403 13.8427 36.4436 13.9258 36.4693C14.0089 36.4949 14.0909 36.5444 14.1719 36.6176L14.6969 37.0927ZM14.1753 37.0605L14.0337 36.9324C13.9829 36.8864 13.9362 36.8613 13.8937 36.8572C13.8509 36.8535 13.8125 36.8703 13.7787 36.9077C13.7551 36.9338 13.741 36.9614 13.7366 36.9904C13.7321 37.0194 13.7367 37.0486 13.7503 37.0781C13.7635 37.1072 13.7856 37.1358 13.8164 37.1637L13.9624 37.2958L14.1753 37.0605ZM13.7929 37.4831L13.6687 37.3707C13.6422 37.3468 13.615 37.3297 13.5871 37.3197C13.5592 37.3097 13.5326 37.3073 13.5072 37.3128C13.4812 37.3182 13.4578 37.3324 13.4371 37.3553C13.4059 37.3898 13.3944 37.4273 13.4026 37.4677C13.4106 37.5086 13.4334 37.5461 13.4712 37.5803L13.5997 37.6966L13.7929 37.4831Z" fill="white"/>
<circle cx="62.461" cy="30.4547" r="11.4786" fill="#11161C"/>
<path d="M62.3574 20.5789C67.8971 20.579 72.3877 25.0703 72.3877 30.6101C72.3875 36.1497 67.897 40.6402 62.3574 40.6404C56.8177 40.6404 52.3264 36.1498 52.3262 30.6101C52.3262 25.0702 56.8175 20.5789 62.3574 20.5789ZM62.3574 21.5613C57.3602 21.5613 53.3088 25.612 53.3086 30.6091C53.3086 35.6064 57.3601 39.658 62.3574 39.658C67.3546 39.6578 71.4053 35.6063 71.4053 30.6091C71.405 25.6121 67.3545 21.5615 62.3574 21.5613Z" fill="#D9D9D9"/>
<path d="M62.3564 22.5952C66.7826 22.5952 70.3711 26.1837 70.3711 30.6099C70.3709 35.0359 66.7825 38.6235 62.3564 38.6235C57.9305 38.6234 54.3429 35.0358 54.3428 30.6099C54.3428 26.1838 57.9304 22.5954 62.3564 22.5952ZM62.3564 23.3804C58.3638 23.3804 55.127 26.6172 55.127 30.6099C55.1271 34.6024 58.3639 37.8393 62.3564 37.8394C66.3491 37.8394 69.5858 34.6025 69.5859 30.6099C69.5859 26.6172 66.3491 23.3804 62.3564 23.3804Z" fill="#535353"/>
<path d="M62.3574 23.8362C66.0983 23.8362 69.1309 26.8688 69.1309 30.6096C69.1309 34.3505 66.0983 37.3831 62.3574 37.3831C58.6166 37.383 55.584 34.3504 55.584 30.6096C55.584 26.8688 58.6166 23.8363 62.3574 23.8362ZM62.3584 24.1467C58.7889 24.1467 55.8945 27.0401 55.8945 30.6096C55.8945 34.1791 58.7889 37.0725 62.3584 37.0725C65.9277 37.0723 68.8213 34.179 68.8213 30.6096C68.8213 27.0403 65.9277 24.147 62.3584 24.1467Z" fill="#C9C8C8"/>
<path d="M62.3574 19.0276C68.754 19.0276 73.9395 24.2131 73.9395 30.6096C73.9395 37.0062 68.754 42.1917 62.3574 42.1917C55.961 42.1915 50.7754 37.0061 50.7754 30.6096C50.7754 24.2132 55.961 19.0278 62.3574 19.0276ZM62.3574 19.7512C56.3608 19.7514 51.5 24.613 51.5 30.6096C51.5001 36.6062 56.3609 41.4678 62.3574 41.468C68.3542 41.468 73.2158 36.6064 73.2158 30.6096C73.2158 24.6128 68.3542 19.7512 62.3574 19.7512Z" fill="url(#paint6_radial_1640_390)"/>
<rect x="62.1895" y="25.2322" width="0.361938" height="10.7547" fill="#D9D9D9"/>
<rect x="65.0889" y="25.9504" width="0.361938" height="10.7547" transform="rotate(31.9343 65.0889 25.9504)" fill="#D9D9D9"/>
<rect x="67.3867" y="28.5532" width="0.361938" height="10.7547" transform="rotate(69.4585 67.3867 28.5532)" fill="#D9D9D9"/>
<rect x="67.6348" y="31.8806" width="0.361938" height="10.7547" transform="rotate(105.774 67.6348 31.8806)" fill="#D9D9D9"/>
<rect x="65.7744" y="34.8127" width="0.361938" height="10.7547" transform="rotate(143.298 65.7744 34.8127)" fill="#D9D9D9"/>
<circle cx="62.357" cy="30.868" r="2.32674" fill="#FF9500"/>
<circle cx="62.3562" cy="30.8682" r="1.18922" fill="#D9D9D9"/>
<path d="M70.1756 26.6207L65.5804 22.496L66.408 20.962L68.8707 22.3529L71.4286 25.5814L70.1756 26.6207Z" fill="#11161C"/>
<path d="M68.1795 22.459L67.1901 23.592L66.8825 23.3234L67.8719 22.1904L68.1795 22.459ZM69.0119 23.9349L68.6999 23.6624C68.7203 23.6346 68.7348 23.6061 68.7436 23.5767C68.7527 23.5476 68.7556 23.5183 68.7522 23.4887C68.7495 23.459 68.7401 23.43 68.7239 23.4016C68.7081 23.3728 68.6854 23.3455 68.6559 23.3197C68.6043 23.2747 68.5496 23.249 68.492 23.2429C68.4347 23.237 68.3763 23.2495 68.317 23.2802C68.258 23.3113 68.1999 23.3596 68.1425 23.4253C68.082 23.4946 68.0405 23.5607 68.018 23.6237C67.9963 23.6866 67.9928 23.7453 68.0076 23.7998C68.0227 23.854 68.0551 23.9028 68.1049 23.9463C68.1333 23.9711 68.1618 23.9898 68.1904 24.0024C68.2194 24.0147 68.2481 24.0212 68.2766 24.0221C68.3051 24.0229 68.3329 24.0183 68.36 24.0081C68.3878 23.9979 68.4141 23.9822 68.4391 23.9611L68.7491 24.2358C68.7036 24.2805 68.6474 24.3176 68.5807 24.3471C68.5143 24.3763 68.4414 24.3932 68.3619 24.3979C68.2831 24.4025 68.2012 24.3902 68.1163 24.3609C68.0314 24.3316 67.9474 24.2807 67.8645 24.2082C67.7605 24.1174 67.6866 24.0136 67.643 23.8968C67.5997 23.7804 67.5919 23.6579 67.6197 23.5294C67.6478 23.4011 67.7166 23.2743 67.8261 23.1489C67.9363 23.0228 68.0533 22.9378 68.1774 22.8941C68.3018 22.8499 68.4246 22.8418 68.5458 22.8697C68.6674 22.8972 68.7791 22.9554 68.8809 23.0443C68.9524 23.1067 69.0097 23.174 69.0528 23.2461C69.0958 23.3181 69.1236 23.3927 69.1361 23.47C69.149 23.5468 69.1454 23.6246 69.1254 23.7034C69.1054 23.7821 69.0675 23.8593 69.0119 23.9349ZM68.5331 24.7648L69.5225 23.6319L70.0137 24.0609C70.1 24.1362 70.1624 24.2111 70.2007 24.2856C70.2394 24.3603 70.2552 24.432 70.2481 24.5005C70.2413 24.5693 70.2127 24.6325 70.1625 24.69C70.1261 24.7317 70.0837 24.7616 70.0353 24.7798C69.9873 24.7983 69.9367 24.8049 69.8836 24.7994C69.8308 24.7936 69.7786 24.776 69.727 24.7465L69.7173 24.7576C69.7644 24.8019 69.7979 24.8529 69.8177 24.9106C69.8379 24.9679 69.8424 25.0267 69.8312 25.0872C69.8204 25.1473 69.7916 25.204 69.7449 25.2575C69.6908 25.3195 69.6264 25.3604 69.5518 25.3804C69.4775 25.4007 69.3986 25.3987 69.3151 25.3746C69.2315 25.3504 69.1486 25.3024 69.0664 25.2305L68.5331 24.7648ZM69.0552 24.7878L69.199 24.9134C69.2507 24.9585 69.2978 24.9827 69.3403 24.9861C69.3832 24.9891 69.4212 24.9716 69.4544 24.9336C69.4776 24.9071 69.4912 24.8793 69.4951 24.8502C69.499 24.8211 69.4939 24.792 69.4798 24.7627C69.466 24.7338 69.4435 24.7057 69.4121 24.6783L69.2639 24.5488L69.0552 24.7878ZM69.4301 24.3585L69.5562 24.4687C69.5831 24.4922 69.6106 24.5087 69.6387 24.5183C69.6667 24.5278 69.6934 24.5297 69.7187 24.5238C69.7447 24.5179 69.7678 24.5033 69.7881 24.48C69.8187 24.445 69.8295 24.4073 69.8205 24.367C69.8119 24.3263 69.7884 24.2892 69.75 24.2557L69.6195 24.1417L69.4301 24.3585Z" fill="white"/>
<path d="M59.6682 38.9859L55.0147 34.927L53.5928 35.9353L55.2732 38.2103L58.7892 40.3561L59.6682 38.9859Z" fill="#11161C"/>
<path d="M56.8906 39.4044L57.8999 38.2891L58.2027 38.5631L57.1934 39.6784L56.8906 39.4044ZM56.0843 37.9141L56.3915 38.192C56.3707 38.2194 56.3556 38.2477 56.3463 38.2769C56.3367 38.3058 56.3333 38.3351 56.3362 38.3648C56.3383 38.3945 56.3472 38.4237 56.3629 38.4524C56.3782 38.4814 56.4004 38.5091 56.4294 38.5354C56.4803 38.5814 56.5345 38.608 56.592 38.6151C56.6492 38.622 56.7077 38.6106 56.7676 38.5809C56.8271 38.5509 56.8861 38.5036 56.9446 38.4389C57.0064 38.3707 57.049 38.3053 57.0726 38.2428C57.0955 38.1803 57.1 38.1216 57.0862 38.0668C57.072 38.0124 57.0404 37.963 56.9914 37.9187C56.9635 37.8934 56.9353 37.8742 56.9069 37.861C56.8782 37.8483 56.8496 37.8412 56.8211 37.8398C56.7926 37.8385 56.7647 37.8427 56.7375 37.8523C56.7095 37.8621 56.6829 37.8773 56.6576 37.8979L56.3524 37.6178C56.3988 37.5739 56.4555 37.5378 56.5228 37.5095C56.5897 37.4815 56.6629 37.4659 56.7425 37.4626C56.8213 37.4594 56.903 37.4732 56.9873 37.504C57.0717 37.5348 57.1548 37.5871 57.2365 37.661C57.3388 37.7537 57.4108 37.8588 57.4524 37.9763C57.4936 38.0935 57.4992 38.2161 57.4692 38.3441C57.4388 38.4718 57.3678 38.5974 57.2561 38.7208C57.1437 38.845 57.0252 38.9279 56.9004 38.9694C56.7752 39.0114 56.6523 39.0174 56.5316 38.9873C56.4105 38.9577 56.2998 38.8975 56.1996 38.8068C56.1292 38.7431 56.0731 38.6749 56.0313 38.6021C55.9896 38.5293 55.9631 38.4542 55.952 38.3767C55.9405 38.2996 55.9454 38.2219 55.9668 38.1435C55.9882 38.0652 56.0274 37.9887 56.0843 37.9141ZM56.5777 37.0927L55.5685 38.208L55.0849 37.7704C54.9999 37.6935 54.939 37.6176 54.9019 37.5424C54.8645 37.467 54.85 37.3951 54.8584 37.3267C54.8664 37.2581 54.896 37.1954 54.9473 37.1388C54.9844 37.0977 55.0273 37.0685 55.076 37.0512C55.1244 37.0335 55.1751 37.0279 55.2281 37.0343C55.2807 37.041 55.3326 37.0595 55.3837 37.0899L55.3936 37.079C55.3473 37.0338 55.3147 36.9823 55.2959 36.9243C55.2767 36.8666 55.2733 36.8077 55.2855 36.7475C55.2974 36.6876 55.3272 36.6313 55.3748 36.5787C55.43 36.5177 55.4951 36.4779 55.5701 36.4592C55.6447 36.4403 55.7236 36.4436 55.8067 36.4693C55.8898 36.4949 55.9718 36.5444 56.0527 36.6176L56.5777 37.0927ZM56.0561 37.0605L55.9145 36.9324C55.8637 36.8864 55.8171 36.8613 55.7746 36.8572C55.7317 36.8535 55.6934 36.8703 55.6596 36.9077C55.6359 36.9338 55.6219 36.9614 55.6174 36.9904C55.613 37.0194 55.6176 37.0486 55.6312 37.0781C55.6444 37.1072 55.6664 37.1358 55.6973 37.1637L55.8433 37.2958L56.0561 37.0605ZM55.6737 37.4831L55.5496 37.3707C55.5231 37.3468 55.4959 37.3297 55.468 37.3197C55.4401 37.3097 55.4135 37.3073 55.3881 37.3128C55.362 37.3182 55.3386 37.3324 55.3179 37.3553C55.2867 37.3898 55.2752 37.4273 55.2835 37.4677C55.2914 37.5086 55.3143 37.5461 55.352 37.5803L55.4806 37.6966L55.6737 37.4831Z" fill="white"/>
</g>
<defs>
<linearGradient id="paint0_linear_1640_390" x1="48.6035" y1="23.4225" x2="43.4505" y2="9.80197" gradientUnits="userSpaceOnUse">
<stop stop-color="white" stop-opacity="0"/>
<stop offset="1" stop-color="white"/>
</linearGradient>
<linearGradient id="paint1_linear_1640_390" x1="47.2411" y1="6.9587" x2="47.8593" y2="3.29717" gradientUnits="userSpaceOnUse">
<stop stop-color="white" stop-opacity="0"/>
<stop offset="1" stop-color="white"/>
</linearGradient>
<linearGradient id="paint2_linear_1640_390" x1="11.8325" y1="23.7377" x2="11.2142" y2="20.0762" gradientUnits="userSpaceOnUse">
<stop stop-color="white" stop-opacity="0"/>
<stop offset="1" stop-color="white" stop-opacity="0.7"/>
</linearGradient>
<linearGradient id="paint3_linear_1640_390" x1="43.4328" y1="29.5756" x2="41.4163" y2="35.5475" gradientUnits="userSpaceOnUse">
<stop offset="0.0645716" stop-opacity="0"/>
<stop offset="1" stop-opacity="0.8"/>
</linearGradient>
<linearGradient id="paint4_linear_1640_390" x1="27.649" y1="19.4155" x2="27.649" y2="32.9882" gradientUnits="userSpaceOnUse">
<stop stop-opacity="0"/>
<stop offset="1"/>
</linearGradient>
<radialGradient id="paint5_radial_1640_390" cx="0" cy="0" r="1" gradientUnits="userSpaceOnUse" gradientTransform="translate(20.4755 30.6095) rotate(90) scale(11.582)">
<stop offset="0.937232" stop-color="#11161C"/>
<stop offset="1" stop-color="#8A8A8A"/>
</radialGradient>
<radialGradient id="paint6_radial_1640_390" cx="0" cy="0" r="1" gradientUnits="userSpaceOnUse" gradientTransform="translate(62.3574 30.6096) rotate(90) scale(11.582)">
<stop offset="0.937232" stop-color="#11161C"/>
<stop offset="1" stop-color="#8A8A8A"/>
</radialGradient>
<clipPath id="clip0_1640_390">
<rect width="74" height="42.1916" fill="white"/>
</clipPath>
</defs>
</svg>
